<?xml version="1.0" encoding="UTF-8" standalone="no" ?>
<!DOCTYPE svg PUBLIC "-//W3C//DTD SVG 1.1//EN" "http://www.w3.org/Graphics/SVG/1.1/DTD/svg11.dtd">
<svg xmlns="http://www.w3.org/2000/svg" xmlns:xlink="http://www.w3.org/1999/xlink" version="1.1" width="1080" height="1080" viewBox="0 0 1080 1080" xml:space="preserve">
<desc>Created with Fabric.js 5.2.4</desc>
<defs>
</defs>
<rect x="0" y="0" width="100%" height="100%" fill="transparent"></rect>
<g transform="matrix(1 0 0 1 540 540)" id="cf58d1a1-852c-48a0-a597-af2485dde0e2"  >
<rect style="stroke: none; stroke-width: 1; stroke-dasharray: none; stroke-linecap: butt; stroke-dashoffset: 0; stroke-linejoin: miter; stroke-miterlimit: 4; fill: rgb(255,255,255); fill-rule: nonzero; opacity: 1; visibility: hidden;" vector-effect="non-scaling-stroke"  x="-540" y="-540" rx="0" ry="0" width="1080" height="1080" />
</g>
<g transform="matrix(1 0 0 1 540 540)" id="ce12d899-70c2-429e-b4df-81b616d224f9"  >
</g>
<g transform="matrix(NaN NaN NaN NaN 0 0)"  >
<g style=""   >
</g>
</g>
<g transform="matrix(NaN NaN NaN NaN 0 0)"  >
<g style=""   >
</g>
</g>
<g transform="matrix(1 0 0 1 540 540)"  >
<g style="" vector-effect="non-scaling-stroke"   >
		<g transform="matrix(1 0 0 1 0 0)"  >
<rect style="stroke: none; stroke-width: 1; stroke-dasharray: none; stroke-linecap: butt; stroke-dashoffset: 0; stroke-linejoin: miter; stroke-miterlimit: 4; fill: rgb(59,59,59); fill-rule: nonzero; opacity: 1; visibility: hidden;" vector-effect="non-scaling-stroke"  x="-540" y="-540" rx="0" ry="0" width="1080" height="1080" />
</g>
		<g transform="matrix(43.53 0 0 43.53 0 0)"  >
<path style="stroke: rgb(0,0,0); stroke-width: 0; stroke-dasharray: none; stroke-linecap: butt; stroke-dashoffset: 0; stroke-linejoin: miter; stroke-miterlimit: 4; fill: rgb(59,59,59); fill-rule: nonzero; opacity: 1;" vector-effect="non-scaling-stroke"  transform=" translate(-12, -12)" d="M 16 16 C 16 16.552284749830793 15.552284749830793 17 15 17 L 13 17 L 13 19 C 13 19.552284749830793 12.552284749830793 20 12 20 C 11.447715250169207 20 11 19.552284749830793 11 19 L 11 17 L 9 17 C 8.447715250169207 17 8 16.552284749830793 8 16 C 8 15.447715250169207 8.447715250169207 15 9 15 L 11 15 L 11 13 C 11 12.447715250169207 11.447715250169207 12 12 12 C 12.552284749830793 12 13 12.447715250169207 13 13 L 13 15 L 15 15 C 15.552284749830793 15 16 15.447715250169207 16 16 z M 22 10.485 L 22 19 C 21.99669388366542 21.760053151009558 19.760053151009558 23.996693883665422 17 24 L 7 24 C 4.239946848990443 23.99669388366542 2.0033061163345804 21.760053151009558 2 19 L 2 5 C 2.0033061163345796 2.239946848990443 4.239946848990443 0.0033061163345804445 7 0 L 11.515 0 C 13.37248766531804 -0.00478082667550284 15.154776250528585 0.7333386884116915 16.464999999999996 2.0499999999999963 L 19.948999999999998 5.536 C 21.266442485411947 6.84537162589001 22.00502973479688 8.627559971675495 22 10.485 z M 15.051 3.4639999999999995 C 14.73628129072042 3.1591610129706282 14.382933546353513 2.896923866818211 14 2.683999999999998 L 14 6.999999999999999 C 14 7.552284749830792 14.447715250169207 7.999999999999999 15 7.999999999999999 L 19.316 7.999999999999999 C 19.102956030530848 7.61718944871658 18.840358849913407 7.264145864019637 18.534999999999997 6.9499999999999975 z M 20 10.485 C 20 10.32 19.968 10.161999999999999 19.953 10 L 15 10 C 13.34314575050762 10 12 8.65685424949238 12 7 L 12 2.0469999999999997 C 11.838 2.0319999999999996 11.679 1.9999999999999998 11.515 1.9999999999999998 L 7.000000000000001 1.9999999999999998 C 5.34314575050762 1.9999999999999998 4.000000000000001 3.3431457505076194 4.000000000000001 5 L 4.000000000000001 19 C 4.000000000000001 20.65685424949238 5.34314575050762 22 7.000000000000001 22 L 17 22 C 18.65685424949238 22 20 20.65685424949238 20 19 z" stroke-linecap="round" />
</g>
</g>
</g>
<g transform="matrix(NaN NaN NaN NaN 0 0)"  >
<g style=""   >
</g>
</g>
<g transform="matrix(NaN NaN NaN NaN 0 0)"  >
<g style=""   >
</g>
</g>
</svg>